<?xml version="1.0" encoding="UTF-8" standalone="no"?>
<!-- Created with Inkscape (http://www.inkscape.org/) -->

<svg
   width="2500"
   height="2360.6045"
   viewBox="0 0 661.45833 624.57659"
   version="1.1"
   id="svg1"
   inkscape:version="1.3.2 (091e20e, 2023-11-25, custom)"
   sodipodi:docname="grid.svg"
   xml:space="preserve"
   inkscape:export-filename="grid.png"
   inkscape:export-xdpi="96"
   inkscape:export-ydpi="96"
   xmlns:inkscape="http://www.inkscape.org/namespaces/inkscape"
   xmlns:sodipodi="http://sodipodi.sourceforge.net/DTD/sodipodi-0.dtd"
   xmlns:xlink="http://www.w3.org/1999/xlink"
   xmlns="http://www.w3.org/2000/svg"
   xmlns:svg="http://www.w3.org/2000/svg"><sodipodi:namedview
     id="namedview1"
     pagecolor="#ffffff"
     bordercolor="#000000"
     borderopacity="0.25"
     inkscape:showpageshadow="2"
     inkscape:pageopacity="0.0"
     inkscape:pagecheckerboard="0"
     inkscape:deskcolor="#d1d1d1"
     inkscape:document-units="mm"
     inkscape:zoom="0.1767767"
     inkscape:cx="2528.6138"
     inkscape:cy="2870.8535"
     inkscape:window-width="3840"
     inkscape:window-height="2126"
     inkscape:window-x="-11"
     inkscape:window-y="-11"
     inkscape:window-maximized="1"
     inkscape:current-layer="layer1" /><defs
     id="defs1"><linearGradient
       id="linearGradient34"
       inkscape:collect="always"><stop
         style="stop-color:#0901ff;stop-opacity:1;"
         offset="0"
         id="stop33" /><stop
         style="stop-color:#01f2ff;stop-opacity:1;"
         offset="1"
         id="stop34" /></linearGradient><linearGradient
       id="linearGradient19"
       inkscape:collect="always"><stop
         style="stop-color:#ff3901;stop-opacity:1;"
         offset="0"
         id="stop19" /><stop
         style="stop-color:#4e00ff;stop-opacity:1;"
         offset="1"
         id="stop20" /></linearGradient><rect
       x="-1120.7388"
       y="-484.38712"
       width="1025.2661"
       height="229.5097"
       id="rect1" /><rect
       x="-1120.7388"
       y="-484.38712"
       width="1025.2661"
       height="229.5097"
       id="rect2" /><rect
       x="-1120.7388"
       y="-484.38712"
       width="1025.2661"
       height="229.5097"
       id="rect4" /><linearGradient
       inkscape:collect="always"
       xlink:href="#linearGradient19"
       id="linearGradient4"
       gradientUnits="userSpaceOnUse"
       x1="-647.84521"
       y1="-309.35049"
       x2="-647.84521"
       y2="-458.14081" /><linearGradient
       inkscape:collect="always"
       xlink:href="#linearGradient34"
       id="linearGradient33"
       x1="-2.0907896"
       y1="362.34583"
       x2="-2.2230811"
       y2="278.73752"
       gradientUnits="userSpaceOnUse" /><linearGradient
       inkscape:collect="always"
       xlink:href="#linearGradient34"
       id="linearGradient35"
       gradientUnits="userSpaceOnUse"
       x1="-2.0907896"
       y1="362.34583"
       x2="-2.2230811"
       y2="278.73752" /><linearGradient
       inkscape:collect="always"
       xlink:href="#linearGradient34"
       id="linearGradient36"
       gradientUnits="userSpaceOnUse"
       x1="-2.0907896"
       y1="362.34583"
       x2="-2.2230811"
       y2="278.73752" /><linearGradient
       inkscape:collect="always"
       xlink:href="#linearGradient34"
       id="linearGradient37"
       gradientUnits="userSpaceOnUse"
       x1="-2.0907896"
       y1="362.34583"
       x2="-2.2230811"
       y2="278.73752" /><linearGradient
       inkscape:collect="always"
       xlink:href="#linearGradient34"
       id="linearGradient38"
       gradientUnits="userSpaceOnUse"
       x1="-2.0907896"
       y1="362.34583"
       x2="-2.2230811"
       y2="278.73752" /><linearGradient
       inkscape:collect="always"
       xlink:href="#linearGradient34"
       id="linearGradient39"
       gradientUnits="userSpaceOnUse"
       x1="-2.0907896"
       y1="362.34583"
       x2="-2.2230811"
       y2="278.73752" /><linearGradient
       inkscape:collect="always"
       xlink:href="#linearGradient34"
       id="linearGradient40"
       gradientUnits="userSpaceOnUse"
       x1="-2.0907896"
       y1="362.34583"
       x2="-2.2230811"
       y2="278.73752" /><linearGradient
       inkscape:collect="always"
       xlink:href="#linearGradient34"
       id="linearGradient41"
       gradientUnits="userSpaceOnUse"
       x1="-2.0907896"
       y1="362.34583"
       x2="-2.2230811"
       y2="278.73752" /></defs><g
     inkscape:label="Calque 1"
     inkscape:groupmode="layer"
     id="layer1"
     transform="translate(331.62933,183.0927)"><image
       width="661.45831"
       height="448.91797"
       preserveAspectRatio="none"
       xlink:href="image.png"
       id="image1"
       x="-331.62933"
       y="-183.0927" /><g
       id="g34"
       transform="matrix(1.8990389,0,0,1.8990389,-2.0020461,-246.44722)"><g
         id="g33"
         style="fill:url(#linearGradient33);fill-opacity:1"><path
           style="fill:url(#linearGradient35);fill-opacity:1;stroke-width:7.26473"
           d="m -55.904799,288.56719 v -8.09158 l 33.543285,0.0758 c 33.509008,0.0757 33.545347,0.0763 35.568153,0.59123 3.614603,0.92019 7.043026,2.82173 10.201065,5.65799 3.434503,3.08453 5.915385,6.62613 6.285131,8.97227 l 0.139607,0.88593 h -42.868606 -42.868635 z"
           id="path4" /><path
           style="fill:url(#linearGradient36);fill-opacity:1;stroke-width:6.96021"
           d="m -96.2765,357.96402 c -0.370866,-0.0416 -1.736336,-0.18899 -3.03437,-0.32743 -4.44195,-0.47367 -8.27934,-1.64647 -12.81177,-3.91551 -6.09021,-3.04892 -10.31544,-6.87518 -14.51566,-13.14499 -4.22405,-6.30543 -6.05968,-11.99941 -6.31702,-19.59493 -0.31513,-9.30154 1.55242,-16.03627 6.46516,-23.31464 6.04496,-8.95578 14.47985,-14.53275 25.15638,-16.63284 1.657164,-0.32598 4.153547,-0.38737 18.824311,-0.46311 l 16.913799,-0.0873 v 7.52506 9.11254 l -14.778503,0.003 c -11.835941,0 -15.203654,0.0665 -16.913791,0.32916 -5.587446,0.85788 -9.393746,2.70379 -12.926626,6.26889 -5.04837,5.09437 -6.04584,8.58443 -5.73189,16.40206 0.20862,5.19477 0.51334,9.18468 3.37308,12.97158 3.87812,5.13544 8.22365,7.73578 14.881359,8.90489 1.511635,0.26545 4.729551,0.32756 16.980716,0.3278 h 15.115655 v 8.15464 7.62543 l -15.00327,-0.0336 c -8.251789,-0.0185 -15.306694,-0.0677 -15.67756,-0.10938 z"
           id="path5"
           sodipodi:nodetypes="cssssssscccccssssccccscc" /><path
           style="fill:url(#linearGradient37);fill-opacity:1;stroke-width:8.1116"
           d="m -81.574809,333.44927 c -2.928377,-0.26618 -7.025727,-1.29427 -9.184604,-2.30453 -1.809797,-0.8469 -3.687414,-2.4438 -4.835568,-4.11257 -0.806731,-1.17253 -2.420146,-4.30577 -2.713941,-5.27039 l -0.18003,-0.59114 13.40011,0.0677 13.400113,0.0677 2.69172,6.21454 2.691719,6.21454 -6.457269,-0.0361 c -3.551497,-0.0197 -7.517012,-0.13231 -8.81225,-0.25004 z"
           id="path6" /><path
           style="fill:url(#linearGradient38);fill-opacity:1;stroke-width:7.20781"
           d="m -53.304046,335.11798 v -24.06475 h 8.254092 8.254092 v 24.06475 24.06477 h -8.254092 -8.254092 z"
           id="path7" /><path
           style="fill:url(#linearGradient39);fill-opacity:1;stroke-width:7.43203"
           d="m -7.2034,343.10753 -17.501231,-17.61041 -0.06345,-7.17517 -0.06346,-7.17517 H 3.2264408 31.284424 l -0.145931,0.65929 c -0.307456,1.38903 -2.004887,4.56651 -3.315299,6.20599 -1.607188,2.01078 -3.585458,3.74533 -6.297869,5.52201 -4.82813,3.16252 -9.240599,4.15493 -18.4734595,4.15493 -2.80545243,0 -5.1008016,0.061 -5.1008016,0.13548 0,0.11672 6.7132724,6.7821 28.5293611,28.32586 l 4.674974,4.61663 -10.428784,-0.0246 -10.428812,-0.0246 z"
           id="path8" /><path
           style="fill:url(#linearGradient40);fill-opacity:1;stroke-width:7.14636"
           d="m 40.495073,319.68092 v -39.88129 h 8.299002 8.299003 v 39.88129 39.88128 h -8.299003 -8.299002 z"
           id="path9" /><path
           style="fill:url(#linearGradient41);fill-opacity:1;stroke-width:7.21748"
           d="m 66.306103,352.04316 0.04677,-10.02069 16.472115,-0.003 c 15.150886,-0.003 16.640624,-0.0378 18.572602,-0.43655 11.29322,-2.3309 16.36029,-9.51118 15.87429,-22.00783 -0.42666,-10.96999 -5.43537,-19.05726 -14.71525,-21.74149 -1.19124,-0.34459 -2.708241,-0.40463 -10.302361,-0.48572 l -7.642572,-0.0816 -0.04677,11.11023 v 12.93431 H 74.80409 66.306103 v -20.95386 -20.95397 h 17.366828 c 16.444489,0 17.488109,0.0247 19.649639,0.4652 4.94617,1.00798 10.8496,3.57026 14.88575,6.46091 7.75947,5.55727 14.18675,14.74744 16.18999,23.14955 1.71487,7.19262 1.35381,14.68433 -1.07283,22.25975 -2.83148,8.83933 -8.43256,16.46169 -15.6822,21.34144 -2.25136,1.51539 -7.71132,4.16878 -10.29773,5.00436 -5.19326,1.67777 -7.922243,1.87509 -25.930715,1.87509 H 66.306103 Z"
           id="path10"
           sodipodi:nodetypes="cccsssscccccccsssssssscc" /></g><text
         xml:space="preserve"
         transform="matrix(0.63650333,0,0,0.63650333,575.166,563.63345)"
         id="text3"
         style="font-style:normal;font-variant:normal;font-weight:normal;font-stretch:normal;font-size:192px;font-family:TR2N;-inkscape-font-specification:TR2N;white-space:pre;shape-inside:url(#rect4);display:inline;fill:url(#linearGradient4);fill-opacity:1;stroke-width:12"><tspan
           x="-1120.7383"
           y="-316.38672"
           id="tspan2">GRID</tspan></text></g></g></svg>
